<svg width="46" height="33" viewBox="0 0 46 33" fill="none" xmlns="http://www.w3.org/2000/svg">
<path d="M38.1078 0.000732422H7.65781C3.43283 0.000732422 0.0078125 3.42575 0.0078125 7.65073V24.9507C0.0078125 29.1757 3.43283 32.6007 7.65781 32.6007H38.1078C42.3328 32.6007 45.7578 29.1757 45.7578 24.9507V7.65073C45.7578 3.42575 42.3328 0.000732422 38.1078 0.000732422Z" fill="#606BF1"/>
<path d="M19.1479 7.04076C17.6779 7.04076 17.1879 7.44076 17.1879 8.54076V13.4508C17.1879 15.3708 16.3979 15.9508 15.0579 16.3208C16.3879 16.6708 17.1879 17.2508 17.1879 19.1508V24.0608C17.1879 25.1608 17.6979 25.5608 19.1479 25.5608V27.7108C15.4379 27.7108 14.3779 26.5208 14.3779 24.0408V19.3908C14.3779 18.0608 14.0279 17.5408 12.8179 17.5408V15.0908C14.0279 15.0908 14.3779 14.5508 14.3779 13.2208V8.57076C14.3779 6.07076 15.4279 4.90076 19.1479 4.90076V7.05076V7.04076Z" fill="#F1F2F2"/>
<path d="M31.3877 8.56074V13.2107C31.3877 14.5407 31.7377 15.0807 32.9777 15.0807V17.5307C31.7377 17.5307 31.3877 18.0407 31.3877 19.3807V24.0307C31.3877 26.5107 30.3377 27.7007 26.6177 27.7007V25.5507C28.0677 25.5507 28.5777 25.1507 28.5777 24.0507V19.1407C28.5777 17.2507 29.3677 16.6607 30.7077 16.3107C29.3777 15.9407 28.5777 15.3507 28.5777 13.4407V8.53074C28.5777 7.43074 28.0877 7.03074 26.6177 7.03074V4.88074C30.3277 4.88074 31.3877 6.05074 31.3877 8.55074V8.56074Z" fill="#F1F2F2"/>
</svg>
