<svg width="80" height="49" viewBox="0 0 80 49" fill="none" xmlns="http://www.w3.org/2000/svg">
<path d="M69.9194 0.000732422H10.0962C4.52454 0.000732422 0.0078125 4.48846 0.0078125 10.0244V38.9771C0.0078125 44.513 4.52454 49.0007 10.0962 49.0007H69.9194C75.4911 49.0007 80.0078 44.513 80.0078 38.9771V10.0244C80.0078 4.48846 75.4911 0.000732422 69.9194 0.000732422Z" fill="#252525"/>
<path d="M29.0682 23.7835L11.2836 11.2284C10.7886 10.8789 10.1026 11.2304 10.1026 11.8335V16.1005C10.1026 16.3446 10.2234 16.5731 10.4258 16.7117L20.7577 23.787C21.1827 24.078 21.1898 24.699 20.7716 24.9996L10.4119 32.4451C10.2176 32.5847 10.1026 32.8084 10.1026 33.0465V37.1539C10.1026 37.7598 10.7939 38.1105 11.2884 37.7556L29.073 24.9902C29.4879 24.6924 29.4854 24.078 29.0682 23.7835Z" fill="#24FF00"/>
<path d="M31.7876 36.9363C31.7876 36.2188 32.3735 35.6371 33.0962 35.6371H67.4931C68.2158 35.6371 68.8017 36.2188 68.8017 36.9363C68.8017 37.6539 68.2158 38.2356 67.4931 38.2356H33.0962C32.3735 38.2356 31.7876 37.6539 31.7876 36.9363Z" fill="#24FF00"/>
</svg>
