<svg width="77" height="48" viewBox="0 0 77 48" fill="none" xmlns="http://www.w3.org/2000/svg">
<path d="M67.2977 0.000732422H9.71788C4.35516 0.000732422 0.0078125 4.39688 0.0078125 9.8198V38.1817C0.0078125 43.6046 4.35516 48.0007 9.71788 48.0007H67.2977C72.6605 48.0007 77.0078 43.6046 77.0078 38.1817V9.8198C77.0078 4.39688 72.6605 0.000732422 67.2977 0.000732422Z" fill="#FF8578"/>
<path d="M29.9145 19.3093L20.7508 23.2641L29.9145 27.1607L28.7163 29.962L17.7314 24.9991V21.5678L28.7163 16.5759L29.9145 19.319V19.3093Z" fill="#F9FBFC"/>
<path d="M43.4108 10.1591L36.7585 35.991L33.5953 35.2447L40.2764 9.44177L43.4108 10.1591Z" fill="#F9FBFC"/>
<path d="M59.3131 24.9894L48.3281 29.9523L47.13 27.151L56.2649 23.2544L47.13 19.2996L48.3281 16.5565L59.3131 21.5484V24.9894Z" fill="#F9FBFC"/>
</svg>
