<svg width="76" height="71" viewBox="0 0 76 71" fill="none" xmlns="http://www.w3.org/2000/svg">
<path d="M66.6821 0.000732422H9.33349C4.18306 0.000732422 0.0078125 4.17975 0.0078125 9.33483V61.6666C0.0078125 66.8217 4.18306 71.0007 9.33349 71.0007H66.6821C71.8326 71.0007 76.0078 66.8217 76.0078 61.6666V9.33483C76.0078 4.17975 71.8326 0.000732422 66.6821 0.000732422Z" fill="#112B46"/>
<path d="M59.5847 3.83731C59.5847 4.59371 58.9692 5.21754 58.2057 5.21754C57.4422 5.21754 56.8267 4.6015 56.8267 3.83731C56.8267 3.07311 57.4422 2.45708 58.2057 2.45708C58.9692 2.45708 59.5847 3.07311 59.5847 3.83731Z" fill="#606BF1"/>
<path d="M65.3265 3.83729C65.3265 4.59369 64.711 5.21752 63.9475 5.21752C63.184 5.21752 62.5686 4.60149 62.5686 3.83729C62.5686 3.0731 63.184 2.45706 63.9475 2.45706C64.711 2.45706 65.3265 3.0731 65.3265 3.83729Z" fill="#FBD15B"/>
<path d="M70.6555 3.98545C70.6555 4.74185 70.04 5.36568 69.2765 5.36568C68.513 5.36568 67.8975 4.74965 67.8975 3.98545C67.8975 3.22126 68.513 2.60522 69.2765 2.60522C70.04 2.60522 70.6555 3.22126 70.6555 3.98545Z" fill="#FF8578"/>
<path d="M24.292 14.4893H13.525V15.3938H24.292V14.4893Z" fill="#FF8578"/>
<path d="M36.921 14.4893H26.154V15.3938H36.921V14.4893Z" fill="#FBD15B"/>
<path d="M33.5475 19.3708H16.8517V20.2753H33.5475V19.3708Z" fill="#606BF1"/>
<path d="M44.7898 19.3708H36.3055V20.2753H44.7898V19.3708Z" fill="#FF8578"/>
<path d="M29.9715 24.2445H22.6403V25.149H29.9715V24.2445Z" fill="#FBD15B"/>
<path d="M58.5329 24.2445H34.2098V25.149H58.5329V24.2445Z" fill="#FBD15B"/>
<path d="M56.1333 29.126H28.3354V30.0305H56.1333V29.126Z" fill="#606BF1"/>
<path d="M29.9404 33.9997H21.386V34.9042H29.9404V33.9997Z" fill="#FF8578"/>
<path d="M42.1565 33.9997H33.6021V34.9042H42.1565V33.9997Z" fill="#606BF1"/>
<path d="M25.967 59.3117H13.525V60.2162H25.967V59.3117Z" fill="#FF8578"/>
<path d="M42.7641 59.3117H30.3221V60.2162H42.7641V59.3117Z" fill="#FBD15B"/>
<path d="M59.1172 59.3117H46.6751V60.2162H59.1172V59.3117Z" fill="#FF8578"/>
<path d="M41.1748 54.4302H16.8517V55.3348H41.1748V54.4302Z" fill="#606BF1"/>
<path d="M69.2843 54.4302H44.9612V55.3348H69.2843V54.4302Z" fill="#FF8578"/>
<path d="M46.7764 49.5565H22.6403V50.461H46.7764V49.5565Z" fill="#FF8578"/>
<path d="M55.5957 49.5565H48.88V50.461H55.5957V49.5565Z" fill="#FBD15B"/>
<path d="M30.1507 44.675H21.0665V45.5796H30.1507V44.675Z" fill="#FBD15B"/>
<path d="M44.0574 44.675H34.9733V45.5796H44.0574V44.675Z" fill="#606BF1"/>
<path d="M58.9925 44.675H49.9084V45.5796H58.9925V44.675Z" fill="#FF8578"/>
<path d="M44.3379 39.8013H31.5998V40.7059H44.3379V39.8013Z" fill="#FBD15B"/>
<path d="M26.7928 39.8013H14.0548V40.7059H26.7928V39.8013Z" fill="#606BF1"/>
<path d="M7.63509 13.6237H6.47425V14.7856H7.63509V13.6237Z" fill="#F9FBFC"/>
<path d="M7.63506 56.1535H6.47422V53.7907H7.63506V56.1535ZM7.63506 50.2427H6.47422V47.8799H7.63506V50.2427ZM7.63506 44.3319H6.47422V41.9691H7.63506V44.3319ZM7.63506 38.4211H6.47422V36.0583H7.63506V38.4211ZM7.63506 32.5102H6.47422V30.1475H7.63506V32.5102ZM7.63506 26.5994H6.47422V24.2367H7.63506V26.5994ZM7.63506 20.6886H6.47422V18.3258H7.63506V20.6886Z" fill="#F9FBFC"/>
<path d="M7.63506 59.7016H6.47422V60.8634H7.63506V59.7016Z" fill="#F9FBFC"/>
<path d="M0.0078125 8.72718C1.00382 1.4406 6.39528 0.164353 8.99357 0.000737006L66.9138 0.000732422C73.626 0.437055 75.7732 6.00017 76.0078 8.72718H0.0078125Z" fill="white" fill-opacity="0.08"/>
</svg>
