<svg width="45" height="30" viewBox="0 0 45 30" fill="none" xmlns="http://www.w3.org/2000/svg">
<path d="M38.0908 0.000732422H6.92482C3.10466 0.000732422 0.0078125 3.08766 0.0078125 6.89558V23.1059C0.0078125 26.9138 3.10466 30.0007 6.92482 30.0007H38.0908C41.911 30.0007 45.0078 26.9138 45.0078 23.1059V6.89558C45.0078 3.08766 41.911 0.000732422 38.0908 0.000732422Z" fill="#FBD15B"/>
<path d="M14.9026 8.6171C12.7547 11.2999 12.7898 15.2148 14.9727 17.8627C17.4625 20.8688 21.7232 21.3581 24.7828 19.322L29.5081 24.0322C29.7097 24.2332 30.0341 24.2332 30.227 24.0322L31.5508 22.7126C31.7524 22.5117 31.7524 22.1883 31.5508 21.9961L26.8255 17.2859C28.7366 14.4283 28.4298 10.5221 25.9049 7.99665C22.8278 4.92937 17.6905 5.1391 14.8938 8.62584L14.9026 8.6171ZM24.3795 16.8752C22.3456 18.9026 19.0318 18.9026 16.9979 16.8752C14.964 14.8478 14.964 11.5446 16.9979 9.51719C19.0318 7.48981 22.3456 7.48981 24.3795 9.51719C26.4134 11.5446 26.4134 14.8478 24.3795 16.8752Z" fill="#F9FBFC"/>
</svg>
