<svg width="427" height="408" viewBox="0 0 427 408" fill="none" xmlns="http://www.w3.org/2000/svg">
<g filter="url(#filter0_d_260_587)">
<path d="M345.253 153.916C366.034 190.165 408.496 226.965 419.264 267.841C430.031 308.717 409.243 353.67 371.403 368.313C333.631 383.024 278.807 367.424 234.132 371.088C189.319 374.751 154.585 397.748 119.024 399.34C83.6014 400.931 47.4904 381.117 40.0362 347.698C32.513 314.21 53.7847 267.116 47.5048 229.485C41.2939 191.922 7.46224 163.891 4.6336 138.689C1.87401 113.417 30.0483 91.0421 59.9476 82.6843C89.8468 74.3265 121.333 80.1237 151.785 63.4799C182.238 46.836 211.518 7.88936 240.451 1.32692C269.314 -5.30456 297.76 20.6554 311.567 51.312C325.374 82.1068 324.473 117.667 345.253 153.916Z" fill="#C13FED"/>
</g>
<path d="M64.2914 298.557L55.4924 235.739C55.4924 235.739 52.9401 223.265 65.6646 217.987C78.3892 212.702 91.7257 207.17 91.7257 207.17V180.557C91.7257 180.557 90.9943 167.874 105.219 164.94L111.548 164.015L122.175 128.071C122.175 128.071 124.884 117.187 137.303 116.761H245.995C245.995 116.761 259.6 116.321 261.727 131.4L289.9 134.379L313.476 136.872C313.476 136.872 326.447 138.081 327.574 151.645L329.664 187.559L366.24 197.898C366.24 197.898 378.868 201.414 377.584 215.314L365.733 298.579H64.2914V298.557Z" fill="#9A00AE"/>
<path d="M82.576 233.79C82.576 233.79 79.531 222.294 92.166 218.42C104.801 214.545 120.399 210.44 120.399 210.44L122.115 181.266C122.115 181.266 122.347 174.899 129.071 171.405C129.071 171.405 131.153 170.427 133.743 170.151C136.333 169.875 174.327 165.866 174.327 165.866C174.327 165.866 174.835 155.437 186.044 154.273L238.629 154.25L273.989 154.288C273.989 154.288 283.064 154.542 285.438 164.381L293.535 191.755C293.535 191.755 302.655 192.292 305.252 195.689C307.849 199.085 309.267 199.698 309.267 206.633V226.012L331.828 235.477C331.828 235.477 339.067 239.479 338.104 248.146L331.037 298.564H92.0466L82.576 233.798V233.79Z" fill="#7E008E"/>
<path d="M91.7937 298.557L82.5693 233.79L125.318 229.274C125.318 229.274 125.87 217.419 138.729 216.001L238.354 215.971C238.354 215.971 246.526 215.882 250.519 222.727C250.519 222.727 251.601 224.638 251.951 225.78L255.795 238.754L261.75 258.888L268.221 259.851C268.221 259.851 272.378 260.814 274.303 262.65C274.303 262.65 277.624 265.308 278.789 268.704C278.789 268.704 279.617 270.653 279.692 272.444L279.766 279.081V298.094L280.849 298.542H91.7937V298.557Z" fill="#670075"/>
<path d="M248.1 136.32C248.018 137.163 246.861 146.002 237.771 146.002C228.233 146.002 229.83 136.558 229.83 136.558L229.815 136.499C230.748 136.305 231.748 136.237 232.808 136.357V131.885L243.637 125.824H244.032V136.26C244.032 136.26 245.749 136.058 248.1 136.32Z" fill="url(#paint0_radial_260_587)"/>
<path d="M242.846 105.862C244.384 107.422 245.54 109.438 246.1 111.894C247.137 116.485 246.16 121.337 244.831 125.756C244.607 126.51 244.346 127.279 243.876 127.914C243.54 128.369 243.115 128.742 242.689 129.116C240.764 130.795 238.839 132.475 236.913 134.155C235.607 135.297 227.592 136.245 226.062 135.147C220.166 130.93 219.032 118.709 220.211 112.461C222.166 102.1 235.488 98.3896 242.839 105.855L242.846 105.862Z" fill="url(#paint1_radial_260_587)"/>
<path d="M239.532 119.12C239.614 118.12 240.637 117.03 241.667 117.679C242.734 118.351 242.48 120.12 242.04 121.098C241.697 121.86 240.532 122.703 239.749 121.987C239.092 121.389 240.114 120.688 240.144 120.143C240.174 119.65 239.197 119.299 239.6 118.777" fill="#F6B095"/>
<path d="M239.719 123.733C240.794 124.054 242.615 123.233 243.077 121.74C243.54 120.24 243.488 118.53 243.488 118.53C243.488 118.53 244.033 119.889 243.749 122.069C243.465 124.248 242.704 126.324 240.995 126.354C239.286 126.383 239.719 123.733 239.719 123.733Z" fill="#F6B095"/>
<path d="M238.398 122.181C238.398 122.181 238.324 122.211 238.279 122.218C237.615 122.308 237.346 121.509 237.249 121.001C237.018 119.822 237.055 118.635 237.01 117.441C237.003 117.142 237.025 116.769 236.906 116.492C236.533 115.634 235.533 115.082 235.234 114.193C234.883 113.163 235.876 112.14 235.48 111.013C234.876 109.289 232.659 108.893 231.055 108.908C228.652 108.938 226.308 109.386 223.935 109.752C221.435 110.14 218.233 110.506 216.024 108.923C213.367 107.012 212.255 102.04 214.24 99.3154C215.322 97.8299 217.375 97.0386 219.173 97.0013C221.077 96.9565 222.689 98.0912 224.435 98.666C225.83 99.1214 227.174 97.7926 228.472 97.5313C230.107 97.2028 230.801 98.987 232.249 99.0392C233.652 99.084 235.032 97.9867 236.398 97.7403C239.122 97.2402 238.966 99.9798 240.787 100.913C241.921 101.495 243.391 101.144 244.54 101.734C245.414 102.182 245.533 102.973 245.727 103.862C245.891 104.631 245.899 105.526 246.152 106.258C246.384 106.915 246.936 107.333 247.369 107.848C247.839 108.408 248.145 109.072 248.384 109.774C248.914 111.342 249.033 113.029 248.884 114.671C248.638 117.426 247.757 120.135 246.839 122.726C246.242 124.405 246.018 126.16 245.108 127.75C244.861 128.175 243.764 129.429 243.361 128.496C243.272 128.295 243.287 128.071 243.302 127.854C243.421 126.122 245.033 114.947 240.809 116.291C239.921 116.575 239.324 117.314 238.995 118.157C238.6 119.165 238.57 120.18 238.622 121.248C238.622 121.397 238.63 121.554 238.622 121.703C238.615 121.897 238.563 122.099 238.398 122.181Z" fill="#403B29"/>
<path d="M232.815 135.334C237.629 134.558 240.801 130.758 240.801 130.758C240.801 130.758 239.502 137.163 232.524 137.506L232.815 135.334Z" fill="#F6B095"/>
<path d="M246.384 289.957H241.929C241.257 289.957 240.712 289.412 240.712 288.74V222.653H247.601V288.74C247.601 289.412 247.056 289.957 246.384 289.957Z" fill="#0D2033"/>
<path d="M258.37 229.341H229.928C227.331 229.341 225.219 227.229 225.219 224.631V223.593H263.087V224.631C263.087 227.229 260.975 229.341 258.378 229.341H258.37Z" fill="#31485E"/>
<path d="M246.384 298.639H241.929C241.257 298.639 240.712 298.094 240.712 297.422V282.111H247.601V297.422C247.601 298.094 247.056 298.639 246.384 298.639Z" fill="#0D2033"/>
<path d="M208.42 294.615C208.42 296.84 210.226 298.646 212.45 298.646C214.674 298.646 216.48 296.84 216.48 294.615C216.48 292.391 214.674 290.584 212.45 290.584C210.226 290.584 208.42 292.391 208.42 294.615Z" fill="#0D2033"/>
<path d="M271.826 294.615C271.826 296.84 273.632 298.646 275.856 298.646C278.08 298.646 279.886 296.84 279.886 294.615C279.886 292.391 278.08 290.584 275.856 290.584C273.632 290.584 271.826 292.391 271.826 294.615Z" fill="#0D2033"/>
<path d="M237.228 289.091H251.079V276.983H237.228V289.091Z" fill="#31485E"/>
<path d="M279.887 291.935H208.42V290.532C208.42 288.165 210.346 286.239 212.712 286.239H275.595C277.961 286.239 279.887 288.165 279.887 290.532V291.935Z" fill="#FBD15B"/>
<path d="M244.153 230.707H241.765V275.908H244.153V230.707Z" fill="#31485E"/>
<path d="M271.206 174.749C269.557 174.697 268.214 176.063 268.303 177.713C268.774 185.917 267.035 205.931 259.4 212.761C250.056 221.107 223.585 219.973 223.585 219.973C223.585 219.973 219.211 225.34 227.958 226.534C236.705 227.729 261.348 226.93 267.303 221.369C273.072 215.979 276.498 201.862 273.916 177.295C273.766 175.884 272.617 174.794 271.199 174.749H271.206Z" fill="#FBD15B"/>
<path d="M221.606 275.9L224.756 283.082L215.106 287.314L211.949 280.111L221.606 275.9Z" fill="url(#paint2_radial_260_587)"/>
<path d="M267.095 196.1C266.497 197.294 223.637 196.122 219.592 196.495C219.592 196.495 193.359 209.022 189.59 220.742C189.21 221.921 189.105 223.481 189.217 225.348C190.27 241.853 209.062 281.38 209.062 281.38L211.95 280.118L221.607 275.908L222.98 275.311C222.98 275.311 208.076 230.887 211.054 228.498C214.032 226.109 247.817 220.152 259.534 216.979C271.266 213.792 267.095 196.107 267.095 196.107V196.1Z" fill="#57558D"/>
<path d="M184.828 277.752L185.581 288.539H175.051L174.305 277.729L184.828 277.752Z" fill="url(#paint3_radial_260_587)"/>
<path d="M219.375 196.122L218.994 196.286C218.994 196.286 175.082 202.452 167.924 214.769C163.275 222.787 172.275 281.35 172.275 281.35L187.814 281.387C187.814 281.387 185.493 232.603 186.261 229.886C187.134 226.788 188.62 225.661 189.217 225.34C189.097 223.481 189.202 221.913 189.59 220.734C193.359 209.006 219.591 196.488 219.591 196.488C219.509 196.428 219.435 196.293 219.375 196.114V196.122Z" fill="#3D3E7B"/>
<path d="M261.794 155.534L258.847 155.937C258.847 155.937 258.13 163.88 256.376 171.823L219.688 185.753L219.188 188.41C219.031 188.395 218.874 188.388 218.732 188.373C218.747 188.918 218.747 189.455 218.77 189.956C218.852 193.024 219.053 195.226 219.374 196.107C219.434 196.286 219.509 196.42 219.591 196.48C220.591 197.294 233.562 195.719 247.592 200.869C259.757 205.341 266.578 210.216 266.892 209.566C270.713 201.616 263.757 170.412 261.787 155.527L261.794 155.534Z" fill="#F48579"/>
<path d="M257.966 173.734C256.989 178.437 254.459 187.783 249.503 189.038C243.025 190.68 230.51 190.598 218.778 189.971C218.755 189.471 218.755 188.933 218.74 188.388C218.882 188.403 219.039 188.411 219.195 188.425L219.696 185.768L256.384 171.838C258.138 163.895 258.854 155.953 258.854 155.953C258.854 155.953 258.854 155.997 258.869 156.087C258.944 157.319 259.444 166.807 257.974 173.749L257.966 173.734Z" fill="#F2685E"/>
<path d="M221.189 143.814C220.532 145.009 219.592 157.767 219.077 170.435L211.576 163.433C214.763 157.266 221.189 143.814 221.189 143.814Z" fill="#F2685E"/>
<path d="M216.695 179.691C210.366 180.789 204.545 181.729 204.545 181.729L204.53 182.043C197.485 176.414 186.761 160.469 186.761 160.469C186.761 160.469 189.97 156.617 190.768 155.602C190.888 155.445 208.366 167.478 209.262 167.374C209.486 167.352 210.381 165.776 211.575 163.44L219.076 170.442C218.956 173.458 218.859 176.466 218.8 179.318C218.098 179.452 217.389 179.572 216.688 179.699L216.695 179.691Z" fill="#F6B095"/>
<path d="M204.546 181.729L204.389 186.955H185.313C185.313 186.955 187.209 179.497 192.374 179.497C197.538 179.497 199.531 182.23 199.531 182.23L204.553 181.729H204.546Z" fill="url(#paint4_radial_260_587)"/>
<path d="M190.627 155.475L190.769 155.594C189.971 156.61 186.761 160.462 186.761 160.462L184.769 159.051C184.769 159.051 182.575 160.387 180.022 158.991C177.365 157.55 179.007 154.101 179.149 153.691C178.634 153.833 175.447 156.416 174.947 156.139C174.447 155.863 174.074 154.96 177.642 151.436C181.194 147.92 186.038 152.437 186.179 152.437L190.627 155.468V155.475Z" fill="#F6B095"/>
<path d="M180.44 158.393C180.44 158.393 179.671 159.834 181.037 160.461C182.403 161.088 185.06 161.536 186.202 161.432C187.344 161.327 188.254 159.722 188.254 159.722L184.799 156.475H182.03L180.44 158.393Z" fill="#F6B095"/>
<path d="M180.239 159.103C180.441 158.394 182.411 158.774 183.627 158.804C184.523 158.827 185.015 158.588 185.292 157.908C185.568 157.222 184.269 156.139 184.008 156.475C183.754 156.819 184.478 157.296 184.501 157.752C184.523 158.207 183.217 158.356 182.217 158.356C181.217 158.356 179.485 158.618 179.485 158.618L180.247 159.103H180.239Z" fill="#E9997C"/>
<path d="M254.518 178.601L235.831 171.98C234.472 174.518 233.017 176.429 231.577 176.81C229.397 177.385 224.121 178.37 218.807 179.303C218.106 179.438 217.397 179.557 216.695 179.684C210.367 180.781 204.545 181.722 204.545 181.722L204.53 182.035V182.237L204.389 186.947V188.142C204.389 188.142 210.732 187.821 218.733 188.381C229.927 189.179 244.368 189.657 249.152 187.403C251.391 186.343 253.182 182.857 254.593 178.564C254.57 178.579 254.548 178.587 254.518 178.601Z" fill="url(#paint5_radial_260_587)"/>
<path d="M235.831 171.987L254.518 178.601L253.667 181.102L235.174 173.167L235.831 171.987Z" fill="#F6B095"/>
<path d="M235.831 171.988C234.473 174.526 233.017 176.437 231.577 176.817C229.398 177.392 224.121 178.378 218.808 179.311C218.867 176.459 218.964 173.458 219.084 170.435C219.599 157.767 220.539 145.009 221.196 143.815C222.27 141.821 225.203 137.492 229.831 136.506L229.846 136.566C229.846 136.566 228.248 146.009 237.786 146.009C247.324 146.009 248.026 137.171 248.115 136.327C252.787 136.85 259.959 139.186 260.944 148.585C261.146 150.444 261.437 152.832 261.802 155.535L258.855 155.938C258.855 155.938 257.66 169.173 254.601 178.564C254.578 178.579 254.556 178.587 254.526 178.602L235.838 171.98L235.831 171.988Z" fill="#F48579"/>
<g style="mix-blend-mode:screen">
<path d="M235.637 170.263L243.1 152.198L237.6 170.995L235.637 170.263Z" fill="#6E4C36"/>
</g>
<path d="M248.1 136.32H244.033C244.033 136.32 238.249 142.672 234.525 142.672C230.801 142.672 232.808 136.349 232.808 136.349H230.995C225.778 136.349 221.397 140.269 220.808 145.449C220.74 146.047 220.681 146.606 220.629 147.114C220.233 150.958 235.801 153.758 235.801 153.758L243.816 153.31L248.682 143.807L249.652 139.918L248.1 136.32Z" fill="#F48579"/>
<path d="M199.037 295.578C199.403 297.519 200.746 298.9 202.687 298.542L228.584 293.712C229.24 293.592 229.673 292.958 229.546 292.301L229.121 290.002C229.121 290.002 201.881 294.772 199.022 295.563L199.037 295.578Z" fill="#F2F2F2"/>
<path d="M206.74 289.061C207.008 288.83 207.27 288.591 207.538 288.36C208.061 287.897 208.568 287.441 209.061 287.001C209.322 286.77 209.583 286.538 209.822 286.314C210.292 285.889 210.74 285.493 211.143 285.135C211.426 284.873 211.695 284.627 211.941 284.411C212.382 284.015 212.747 283.687 213.001 283.463C213.218 283.268 213.546 283.254 213.77 283.448C214.837 284.343 218.278 286.389 224.509 282.529C224.808 282.343 225.196 282.44 225.36 282.753L229.129 290.002C229.129 290.002 201.889 294.772 199.03 295.563C199.971 294.974 203.448 291.965 206.747 289.054L206.74 289.061Z" fill="#3D3E7B"/>
<path d="M158.253 295.324C158.297 297.303 159.409 298.878 161.387 298.833L187.724 298.191C188.389 298.176 188.918 297.624 188.903 296.952L188.844 294.615C188.844 294.615 161.193 294.981 158.245 295.309V295.324H158.253Z" fill="#F2F2F2"/>
<path d="M166.895 290.114C167.201 289.927 167.492 289.741 167.798 289.546C168.388 289.173 168.962 288.807 169.515 288.449C169.806 288.262 170.104 288.076 170.373 287.897C170.91 287.553 171.41 287.232 171.858 286.941C172.186 286.732 172.485 286.531 172.761 286.351C173.261 286.03 173.672 285.769 173.955 285.583C174.201 285.426 174.522 285.463 174.716 285.687C175.627 286.74 178.694 289.308 185.463 286.493C185.784 286.359 186.157 286.516 186.262 286.844L188.829 294.6C188.829 294.6 161.178 294.966 158.23 295.295C159.253 294.862 163.164 292.45 166.888 290.099L166.895 290.114Z" fill="#3D3E7B"/>
<path d="M139.513 188.149L125.452 150.623H165.492L179.56 188.149H139.513Z" fill="#ACB6BB"/>
<path d="M182.03 188.149H179.56L165.492 150.623L167.739 150.727L180.754 184.686L182.03 188.149Z" fill="#84959F"/>
<path d="M181.254 188.15H207.71L207.636 185.783H180.709" fill="#84959F"/>
<path d="M293.984 195.301H287.61V299.983H293.984V195.301Z" fill="#84959F"/>
<path d="M259.407 195.301H253.033V299.983H259.407V195.301Z" fill="#ACB6BB"/>
<path d="M148.624 195.301H142.251V299.983H148.624V195.301Z" fill="#84959F"/>
<path d="M114.048 195.301H107.675V299.983H114.048V195.301Z" fill="#ACB6BB"/>
<path d="M300.357 188.149H101.57C99.8593 188.149 98.4727 189.536 98.4727 191.247V192.606C98.4727 194.317 99.8593 195.704 101.57 195.704H300.357C302.067 195.704 303.454 194.317 303.454 192.606V191.247C303.454 189.536 302.067 188.149 300.357 188.149Z" fill="#212155"/>
<path d="M132.139 154.572L132.818 156.4H140.796L140.109 154.572H132.139Z" fill="#84959F"/>
<path d="M211.575 163.433L211.008 164.537L219.075 172.883V170.435L211.575 163.433Z" fill="#E9997C"/>
<path d="M376.346 298.639H54V305.999H376.346V298.639Z" fill="#A5B8C6"/>
<path d="M325.237 244.04C323.953 250.258 324.342 260.844 316.125 262.516C313.908 262.964 311.774 261.433 310.49 259.672C308.803 257.372 308.4 252.498 308.43 249.713C308.453 247.504 309.206 245.04 309.445 242.816C309.706 240.412 309.923 238.001 310.199 235.597C311.206 226.93 315.737 219.666 323.394 215.344C323.983 218.188 325.334 220.6 326.528 223.324C327.073 224.571 327.558 225.885 327.916 227.191C328.543 229.505 327.782 231.834 327.222 234.052C326.394 237.321 325.924 240.733 325.237 244.04Z" fill="url(#paint6_linear_260_587)"/>
<path d="M314.729 262.725C314.789 262.202 314.849 261.68 314.923 261.164C315.909 261.164 316.931 260.605 317.752 260.179C319.185 259.44 320.342 258.373 321.461 257.238C321.521 257.178 321.416 257.081 321.357 257.133C320.237 258.074 319.073 258.985 317.744 259.604C316.998 259.948 315.916 260.515 314.998 260.627C315.088 260.007 315.177 259.38 315.282 258.761C316.304 258.634 317.244 257.962 318.11 257.447C319.58 256.573 320.849 255.446 322.163 254.356C322.178 254.341 322.163 254.319 322.148 254.334C320.14 255.79 317.901 257.865 315.364 258.32C315.498 257.544 315.64 256.768 315.804 255.999C315.812 255.961 315.819 255.917 315.826 255.879C318.767 255.133 320.752 252.834 323.006 250.967C323.043 250.937 323.006 250.878 322.961 250.908C320.745 252.632 318.662 254.595 315.923 255.431C316.162 254.334 316.409 253.237 316.655 252.139C319.312 251.161 321.439 249.601 323.297 247.429C323.327 247.392 323.275 247.339 323.245 247.377C321.319 249.377 319.2 250.527 316.767 251.669C317.013 250.587 317.259 249.497 317.491 248.414C318.64 247.847 319.849 247.503 320.916 246.757C321.961 246.025 322.901 245.152 323.581 244.055C323.618 243.995 323.528 243.943 323.491 243.995C322.006 246.137 319.759 246.802 317.595 247.922C317.804 246.906 318.006 245.891 318.177 244.868C320.595 243.54 323.215 242.308 324.588 239.755C324.603 239.732 324.566 239.703 324.551 239.732C323.103 242.076 320.566 243.084 318.267 244.361C318.297 244.182 318.327 243.995 318.356 243.816C318.506 242.868 318.64 241.92 318.782 240.972C320.17 240.419 321.491 239.628 322.745 238.814C323.633 238.239 324.581 237.665 325.155 236.761C325.193 236.702 325.111 236.649 325.066 236.702C323.767 238.56 320.931 239.628 318.834 240.561C318.968 239.598 319.103 238.643 319.245 237.68C321.573 236.269 324.304 235.492 325.737 232.954C325.782 232.88 325.67 232.812 325.625 232.88C324.14 235.194 321.536 235.91 319.312 237.224C319.394 236.627 319.483 236.037 319.573 235.44C322.081 234.514 325.006 232.417 326.327 230.147C326.402 230.02 326.223 229.908 326.14 230.028C324.79 232.021 322.081 234.186 319.648 234.977C319.797 234.014 319.954 233.051 320.125 232.096C320.14 232.066 320.155 232.043 320.163 232.014C321.289 231.685 322.401 230.886 323.379 230.289C324.551 229.565 325.67 228.722 326.402 227.535C326.484 227.4 326.267 227.281 326.193 227.415C325.081 229.408 322.431 230.737 320.237 231.498C320.304 231.148 320.364 230.797 320.431 230.453C320.536 229.931 320.64 229.408 320.745 228.886C321.64 228.266 322.782 227.968 323.685 227.318C324.469 226.751 325.155 226.064 325.82 225.37C325.887 225.303 325.79 225.191 325.715 225.258C324.805 226.116 323.872 226.93 322.767 227.527C322.148 227.856 321.446 228.05 320.842 228.408C321.013 227.557 321.192 226.698 321.357 225.847C321.364 225.847 321.379 225.847 321.386 225.847C321.394 225.847 321.409 225.847 321.416 225.847C321.476 225.862 321.528 225.84 321.566 225.803C322.782 225.497 323.715 224.444 324.536 223.548C324.558 223.526 324.528 223.496 324.506 223.518C323.648 224.317 322.67 225.198 321.513 225.534C321.513 225.534 321.513 225.534 321.498 225.534C321.469 225.534 321.439 225.526 321.409 225.519C321.543 224.825 321.67 224.131 321.782 223.429C321.872 223.414 321.946 223.339 321.924 223.25C322.573 222.817 323.155 222.264 323.707 221.719C323.752 221.682 323.693 221.615 323.648 221.652C323.073 222.145 322.506 222.555 321.864 222.914C322.095 221.473 322.267 220.025 322.349 218.554C322.349 218.42 322.155 218.42 322.14 218.554C322.013 219.965 321.804 221.361 321.566 222.749C320.894 221.869 320.14 220.958 319.73 219.943C319.707 219.89 319.625 219.913 319.64 219.965C319.842 220.592 320.185 221.145 320.528 221.697C320.834 222.197 321.08 222.779 321.476 223.22C321.342 223.966 321.192 224.713 321.043 225.452C320.222 225.317 319.476 225.168 318.797 224.571C317.968 223.847 317.498 222.861 317.416 221.764C317.409 221.63 317.192 221.63 317.207 221.764C317.297 222.779 317.707 223.735 318.401 224.496C319.133 225.295 319.991 225.549 320.976 225.75C320.797 226.609 320.61 227.467 320.424 228.318C319.677 227.87 318.991 227.288 318.319 226.758C317.237 225.9 316.603 224.862 315.662 223.892C315.565 223.795 315.416 223.936 315.506 224.033C316.386 224.967 316.976 225.982 317.983 226.818C318.7 227.423 319.498 228.184 320.357 228.624C320.349 228.669 320.334 228.714 320.327 228.759C320.319 228.766 320.304 228.774 320.297 228.781C320.23 228.848 320.237 228.923 320.274 228.975C320.095 229.796 319.916 230.618 319.737 231.439C319.73 231.491 319.715 231.543 319.707 231.596C317.797 230.722 314.938 229.199 314.685 226.982C314.662 226.773 314.349 226.833 314.394 227.049C314.961 229.558 317.715 230.67 319.618 232.043C319.431 232.977 319.259 233.902 319.103 234.843C317.871 234.417 316.692 233.895 315.655 233.066C314.714 232.32 313.379 231.409 312.953 230.252C312.938 230.215 312.886 230.237 312.901 230.274C313.296 231.431 314.491 232.223 315.364 233.014C316.468 234.014 317.603 234.865 319.021 235.261C319.013 235.298 319.006 235.343 319.021 235.388C318.924 235.978 318.827 236.575 318.737 237.164C316.416 236.985 313.17 235.224 311.983 233.469C311.983 233.462 311.968 233.469 311.968 233.477C312.774 234.82 313.998 235.604 315.379 236.284C316.409 236.791 317.521 237.388 318.685 237.478C318.521 238.575 318.356 239.68 318.192 240.778C317.185 240.404 316.118 240.225 315.117 239.822C313.632 239.232 312.505 238.165 311.632 236.851C311.58 236.769 311.446 236.836 311.498 236.918C313.102 239.471 315.416 240.225 318.125 241.181C317.991 242.084 317.849 242.987 317.7 243.883C315.483 243.457 312.617 242.106 311.49 240.18C311.408 240.038 311.184 240.158 311.266 240.3C311.975 241.531 313.199 242.315 314.438 242.942C315.334 243.398 316.573 244.144 317.64 244.226C317.64 244.256 317.632 244.286 317.625 244.316C317.409 245.615 317.147 246.899 316.871 248.183C314.394 247.563 312.796 245.727 310.99 244.01C310.863 243.89 310.669 244.07 310.796 244.196C312.632 246.003 314.244 247.899 316.789 248.564C316.558 249.609 316.319 250.654 316.065 251.691C313.953 251.102 311.871 249.601 310.505 247.884C310.408 247.765 310.237 247.929 310.334 248.048C311.752 249.915 313.796 251.326 315.976 252.094C315.7 253.207 315.416 254.327 315.132 255.439C312.968 255.11 311.296 253.752 309.96 252.035C309.931 251.997 309.856 252.05 309.886 252.087C311.072 253.737 312.864 255.64 315.02 255.842C314.931 256.2 314.834 256.551 314.744 256.909C314.692 257.126 314.632 257.342 314.573 257.559C312.938 257.081 311.423 256.491 310.072 255.387C310.035 255.357 309.99 255.416 310.028 255.446C311.311 256.603 312.841 257.38 314.483 257.88C314.304 258.544 314.11 259.239 313.916 259.933C313.513 259.746 313.117 259.537 312.677 259.403C311.864 259.156 311.341 258.641 310.632 258.216C310.565 258.178 310.498 258.268 310.557 258.313C311.177 258.716 311.617 259.239 312.326 259.507C312.849 259.701 313.349 259.955 313.856 260.179C313.11 262.956 312.453 265.905 312.811 268.57C312.893 269.16 313.879 269.316 314.035 268.689C314.505 266.756 314.483 264.695 314.7 262.717L314.729 262.725Z" fill="#727ABA"/>
<path d="M299.221 242.256C300.683 248.429 305.497 257.865 298.758 262.852C296.944 264.195 294.355 263.71 292.444 262.658C289.944 261.284 287.526 257.036 286.377 254.498C285.466 252.49 285.108 249.937 284.392 247.817C283.615 245.525 282.787 243.248 282.026 240.949C279.287 232.663 280.324 224.175 285.436 217.016C287.175 219.345 289.414 220.958 291.646 222.929C292.661 223.824 293.661 224.81 294.534 225.847C296.079 227.676 296.377 230.117 296.803 232.357C297.43 235.671 298.445 238.964 299.221 242.256Z" fill="url(#paint7_linear_260_587)"/>
<path d="M297.586 263.635C297.422 263.135 297.258 262.635 297.101 262.135C297.989 261.717 298.683 260.784 299.251 260.045C300.236 258.768 300.833 257.313 301.378 255.812C301.407 255.73 301.273 255.685 301.236 255.76C300.616 257.089 299.952 258.402 299.004 259.53C298.474 260.157 297.728 261.127 296.944 261.612C296.758 261.015 296.586 260.411 296.415 259.806C297.288 259.261 297.855 258.253 298.422 257.425C299.385 256.014 300.057 254.453 300.788 252.908C300.795 252.893 300.773 252.878 300.758 252.893C299.557 255.066 298.4 257.887 296.295 259.373C296.086 258.611 295.892 257.85 295.713 257.081C295.706 257.044 295.698 256.999 295.683 256.962C298.034 255.051 298.863 252.117 300.116 249.482C300.139 249.437 300.072 249.4 300.049 249.444C298.765 251.938 297.706 254.603 295.579 256.514C295.332 255.416 295.094 254.319 294.855 253.222C296.855 251.214 298.116 248.899 298.885 246.152C298.9 246.108 298.833 246.078 298.818 246.13C297.922 248.758 296.482 250.691 294.75 252.759C294.519 251.669 294.28 250.587 294.026 249.504C294.832 248.504 295.78 247.683 296.43 246.563C297.071 245.458 297.556 244.264 297.706 242.987C297.713 242.92 297.616 242.905 297.601 242.972C297.153 245.54 295.4 247.093 293.914 249.026C293.676 248.019 293.429 247.011 293.153 246.01C294.78 243.786 296.639 241.561 296.803 238.672C296.803 238.643 296.765 238.635 296.758 238.672C296.43 241.405 294.556 243.39 293.011 245.518C292.959 245.339 292.914 245.159 292.862 244.98C292.594 244.055 292.317 243.136 292.041 242.218C293.064 241.128 293.929 239.859 294.72 238.59C295.28 237.694 295.9 236.776 296.041 235.709C296.049 235.642 295.952 235.627 295.937 235.694C295.549 237.926 293.429 240.091 291.922 241.823C291.638 240.897 291.355 239.971 291.079 239.038C292.594 236.784 294.743 234.917 294.974 232.014C294.974 231.924 294.855 231.909 294.84 231.999C294.474 234.723 292.407 236.47 290.952 238.605C290.78 238.03 290.608 237.456 290.437 236.881C292.325 234.985 294.086 231.842 294.325 229.229C294.34 229.087 294.123 229.057 294.101 229.199C293.72 231.573 292.168 234.686 290.302 236.425C290.034 235.492 289.765 234.552 289.519 233.611C289.519 233.581 289.519 233.551 289.519 233.522C290.399 232.745 291.079 231.551 291.705 230.595C292.467 229.446 293.123 228.206 293.28 226.818C293.295 226.661 293.056 226.646 293.041 226.796C292.87 229.072 291.034 231.401 289.369 233.014C289.28 232.67 289.19 232.327 289.108 231.976C288.981 231.461 288.855 230.939 288.735 230.424C289.287 229.483 290.198 228.736 290.735 227.759C291.205 226.915 291.534 226.004 291.855 225.086C291.885 224.996 291.75 224.944 291.713 225.034C291.25 226.191 290.75 227.333 289.996 228.333C289.578 228.893 289.019 229.363 288.623 229.946C288.422 229.095 288.22 228.251 288.011 227.408C288.019 227.408 288.026 227.393 288.034 227.385C288.041 227.385 288.056 227.385 288.063 227.378C288.123 227.363 288.16 227.318 288.175 227.273C289.153 226.482 289.556 225.131 289.922 223.974C289.929 223.944 289.892 223.929 289.877 223.959C289.429 225.041 288.922 226.251 288.019 227.049C288.019 227.049 288.011 227.049 288.004 227.049C287.974 227.057 287.944 227.064 287.922 227.072C287.75 226.385 287.571 225.698 287.384 225.019C287.459 224.967 287.496 224.87 287.437 224.795C287.84 224.131 288.138 223.377 288.407 222.652C288.429 222.6 288.347 222.563 288.325 222.615C288.011 223.302 287.675 223.914 287.235 224.511C286.832 223.108 286.384 221.719 285.839 220.353C285.787 220.226 285.601 220.316 285.645 220.435C286.123 221.764 286.526 223.123 286.892 224.481C285.907 223.966 284.847 223.459 284.048 222.712C284.004 222.675 283.944 222.727 283.981 222.772C284.429 223.257 284.974 223.608 285.519 223.966C286.011 224.287 286.474 224.713 287.019 224.952C287.213 225.683 287.392 226.422 287.563 227.161C286.765 227.385 286.019 227.564 285.16 227.311C284.108 227.005 283.265 226.31 282.727 225.347C282.66 225.228 282.466 225.317 282.541 225.437C283.056 226.318 283.824 227.019 284.772 227.408C285.772 227.818 286.66 227.691 287.638 227.46C287.84 228.311 288.034 229.169 288.22 230.02C287.362 229.931 286.489 229.692 285.653 229.49C284.309 229.162 283.295 228.498 282.033 228.012C281.906 227.968 281.824 228.154 281.951 228.206C283.145 228.684 284.108 229.349 285.369 229.692C286.28 229.938 287.317 230.289 288.287 230.334C288.295 230.379 288.31 230.424 288.317 230.468C288.317 230.483 288.31 230.491 288.302 230.506C288.272 230.595 288.302 230.655 288.369 230.685C288.549 231.506 288.735 232.327 288.922 233.141C288.937 233.193 288.944 233.245 288.959 233.298C286.854 233.312 283.623 233.141 282.459 231.237C282.347 231.058 282.085 231.237 282.22 231.416C283.795 233.454 286.765 233.298 289.063 233.738C289.287 234.656 289.526 235.574 289.772 236.493C288.474 236.627 287.19 236.649 285.899 236.336C284.727 236.052 283.138 235.798 282.265 234.925C282.235 234.895 282.197 234.94 282.227 234.97C283.071 235.851 284.489 236.067 285.616 236.41C287.041 236.851 288.422 237.142 289.877 236.903C289.884 236.948 289.899 236.985 289.929 237.015C290.093 237.59 290.258 238.172 290.422 238.747C288.243 239.568 284.556 239.337 282.735 238.247C282.727 238.247 282.72 238.254 282.735 238.262C284.033 239.135 285.474 239.329 287.011 239.367C288.16 239.389 289.422 239.464 290.519 239.053C290.832 240.121 291.146 241.188 291.467 242.248C290.392 242.33 289.355 242.621 288.28 242.681C286.683 242.771 285.213 242.278 283.869 241.464C283.787 241.412 283.698 241.531 283.78 241.584C286.317 243.226 288.728 242.927 291.586 242.651C291.847 243.525 292.093 244.406 292.34 245.279C290.153 245.831 286.981 245.816 285.153 244.54C285.018 244.443 284.862 244.644 284.996 244.741C286.16 245.563 287.593 245.757 288.989 245.801C289.996 245.831 291.429 245.996 292.429 245.615C292.437 245.645 292.444 245.675 292.452 245.704C292.802 246.973 293.108 248.25 293.4 249.527C290.892 250.004 288.668 249.019 286.31 248.22C286.145 248.168 286.048 248.414 286.213 248.474C288.638 249.34 290.899 250.37 293.489 249.9C293.72 250.945 293.944 251.99 294.153 253.043C291.989 253.401 289.466 252.923 287.504 251.938C287.362 251.871 287.28 252.087 287.414 252.162C289.489 253.252 291.937 253.67 294.235 253.446C294.459 254.573 294.668 255.7 294.877 256.827C292.773 257.439 290.69 256.917 288.75 255.924C288.705 255.902 288.66 255.976 288.705 256.006C290.474 256.999 292.907 257.969 294.944 257.245C295.012 257.604 295.079 257.969 295.146 258.328C295.183 258.544 295.228 258.768 295.265 258.992C293.579 259.246 291.959 259.35 290.272 258.925C290.228 258.91 290.213 258.985 290.258 259C291.907 259.507 293.623 259.56 295.325 259.328C295.444 260.007 295.556 260.717 295.683 261.426C295.235 261.426 294.795 261.403 294.332 261.471C293.489 261.59 292.795 261.351 291.974 261.262C291.899 261.254 291.87 261.366 291.952 261.381C292.683 261.485 293.303 261.777 294.056 261.717C294.616 261.672 295.168 261.695 295.728 261.687C296.228 264.516 296.87 267.472 298.325 269.742C298.646 270.242 299.609 269.966 299.482 269.331C299.094 267.383 298.198 265.517 297.564 263.635H297.586Z" fill="#727ABA"/>
<path d="M313.468 237.471C313.819 245.316 317.49 257.902 308.132 262.404C305.609 263.613 302.579 262.426 300.504 260.702C297.788 258.455 295.825 252.729 295.019 249.377C294.377 246.72 294.534 243.54 294.153 240.793C293.735 237.829 293.265 234.865 292.87 231.902C291.459 221.197 294.683 211.112 302.557 203.602C304.132 206.834 306.482 209.313 308.736 212.231C309.766 213.56 310.751 214.986 311.572 216.449C313.028 219.032 312.826 222.063 312.819 224.892C312.819 229.072 313.281 233.305 313.468 237.478V237.471Z" fill="url(#paint8_linear_260_587)"/>
<path d="M306.527 263.076C306.438 262.434 306.356 261.784 306.281 261.142C307.46 260.844 308.52 259.858 309.378 259.097C310.871 257.776 311.938 256.148 312.938 254.439C312.991 254.349 312.841 254.26 312.782 254.342C311.722 255.812 310.602 257.253 309.192 258.41C308.408 259.052 307.274 260.06 306.207 260.47C306.124 259.694 306.05 258.925 305.983 258.149C307.169 257.686 308.095 256.596 308.975 255.715C310.475 254.222 311.655 252.483 312.894 250.773C312.908 250.751 312.879 250.729 312.864 250.751C310.901 253.11 308.841 256.275 305.938 257.589C305.863 256.618 305.804 255.641 305.759 254.67C305.759 254.618 305.759 254.566 305.759 254.521C309.057 252.737 310.744 249.37 312.879 246.451C312.916 246.406 312.849 246.339 312.811 246.391C310.677 249.131 308.774 252.117 305.736 253.946C305.684 252.558 305.654 251.162 305.617 249.773C308.513 247.787 310.587 245.279 312.155 242.107C312.185 242.054 312.102 242.009 312.073 242.062C310.371 245.048 308.177 247.071 305.602 249.176C305.565 247.802 305.535 246.421 305.483 245.048C306.692 244.018 308.035 243.241 309.087 242.024C310.125 240.83 310.983 239.494 311.461 237.978C311.483 237.896 311.364 237.859 311.334 237.941C310.199 240.957 307.707 242.435 305.445 244.443C305.393 243.159 305.318 241.883 305.221 240.599C307.714 238.269 310.49 235.993 311.364 232.521C311.371 232.484 311.319 232.469 311.311 232.506C310.281 235.754 307.55 237.732 305.169 239.964C305.147 239.733 305.132 239.509 305.117 239.277C305.005 238.098 304.886 236.911 304.759 235.731C306.259 234.641 307.602 233.298 308.856 231.947C309.744 230.984 310.707 230.013 311.132 228.744C311.162 228.662 311.043 228.617 311.013 228.699C310.02 231.32 306.945 233.469 304.706 235.216C304.58 234.022 304.453 232.835 304.326 231.641C306.692 229.244 309.737 227.483 310.684 224.004C310.714 223.899 310.558 223.855 310.528 223.952C309.453 227.176 306.535 228.826 304.274 231.081C304.199 230.342 304.117 229.603 304.05 228.864C306.781 226.997 309.647 223.586 310.55 220.458C310.602 220.286 310.349 220.204 310.289 220.368C309.274 223.168 306.677 226.587 303.998 228.274C303.886 227.072 303.781 225.878 303.692 224.676C303.706 224.638 303.714 224.601 303.714 224.564C304.968 223.825 306.065 222.533 307.05 221.518C308.237 220.294 309.326 218.943 309.841 217.293C309.901 217.114 309.602 217.031 309.558 217.218C308.826 219.943 306.05 222.347 303.654 223.929C303.624 223.489 303.595 223.048 303.572 222.608C303.535 221.951 303.505 221.294 303.475 220.63C304.363 219.614 305.639 218.913 306.52 217.853C307.289 216.934 307.901 215.904 308.498 214.867C308.557 214.762 308.408 214.665 308.341 214.77C307.513 216.068 306.639 217.338 305.49 218.383C304.848 218.965 304.057 219.405 303.453 220.025C303.408 218.95 303.356 217.875 303.296 216.793C303.311 216.793 303.318 216.778 303.333 216.778C303.348 216.778 303.363 216.778 303.371 216.778C303.445 216.778 303.505 216.733 303.535 216.681C304.908 215.942 305.707 214.396 306.416 213.075C306.43 213.045 306.386 213.015 306.371 213.045C305.58 214.262 304.677 215.613 303.393 216.375C303.393 216.375 303.386 216.375 303.378 216.375C303.341 216.375 303.303 216.375 303.266 216.382C303.214 215.509 303.154 214.635 303.087 213.762C303.192 213.717 303.259 213.605 303.206 213.501C303.848 212.784 304.386 211.94 304.886 211.127C304.923 211.067 304.833 211.007 304.796 211.067C304.259 211.836 303.699 212.493 303.035 213.12C302.871 211.321 302.647 209.529 302.296 207.745C302.266 207.581 302.02 207.64 302.042 207.805C302.318 209.537 302.497 211.268 302.624 213.015C301.55 212.157 300.378 211.298 299.572 210.208C299.527 210.149 299.438 210.208 299.475 210.268C299.908 210.962 300.49 211.515 301.072 212.082C301.594 212.59 302.065 213.209 302.669 213.627C302.736 214.561 302.781 215.501 302.826 216.442C301.803 216.531 300.856 216.576 299.87 216.069C298.661 215.449 297.796 214.411 297.363 213.12C297.311 212.963 297.057 213.03 297.109 213.187C297.527 214.381 298.303 215.404 299.37 216.106C300.49 216.837 301.594 216.882 302.841 216.83C302.886 217.912 302.923 218.995 302.96 220.085C301.93 219.779 300.93 219.286 299.96 218.845C298.4 218.136 297.326 217.091 295.9 216.21C295.758 216.121 295.616 216.337 295.758 216.427C297.094 217.285 298.117 218.315 299.572 219.017C300.617 219.525 301.803 220.197 302.968 220.465C302.968 220.525 302.968 220.577 302.968 220.637C302.96 220.652 302.945 220.659 302.938 220.674C302.878 220.771 302.908 220.861 302.975 220.913C303.005 221.951 303.042 222.989 303.08 224.026C303.08 224.093 303.08 224.153 303.087 224.22C300.527 223.75 296.639 222.794 295.661 220.204C295.572 219.958 295.206 220.122 295.333 220.368C296.773 223.213 300.423 223.705 303.117 224.773C303.177 225.945 303.251 227.117 303.341 228.281C301.729 228.147 300.161 227.871 298.669 227.199C297.311 226.587 295.437 225.907 294.572 224.638C294.542 224.601 294.49 224.638 294.512 224.683C295.333 225.952 297.012 226.542 298.296 227.221C299.923 228.087 301.542 228.759 303.363 228.811C303.363 228.864 303.371 228.916 303.393 228.961C303.453 229.7 303.52 230.439 303.595 231.178C300.751 231.67 296.325 230.536 294.363 228.789C294.355 228.781 294.34 228.789 294.348 228.804C295.728 230.17 297.43 230.737 299.288 231.133C300.676 231.432 302.199 231.812 303.624 231.566C303.759 232.932 303.9 234.306 304.035 235.672C302.714 235.53 301.378 235.634 300.057 235.455C298.102 235.194 296.415 234.261 294.975 232.947C294.885 232.865 294.751 232.984 294.84 233.074C297.542 235.657 300.542 235.851 304.087 236.179C304.199 237.299 304.304 238.426 304.393 239.553C301.602 239.718 297.751 238.964 295.825 236.993C295.684 236.851 295.452 237.06 295.594 237.202C296.818 238.471 298.52 239.031 300.206 239.412C301.423 239.68 303.132 240.21 304.438 239.979C304.438 240.016 304.438 240.054 304.445 240.091C304.572 241.711 304.662 243.338 304.714 244.958C301.557 244.958 299.079 243.249 296.393 241.733C296.206 241.629 296.027 241.905 296.214 242.017C298.96 243.629 301.468 245.413 304.729 245.436C304.774 246.757 304.796 248.086 304.811 249.407C302.102 249.34 299.139 248.176 296.982 246.526C296.825 246.406 296.676 246.66 296.825 246.78C299.094 248.586 301.975 249.661 304.818 249.922C304.826 251.341 304.826 252.767 304.818 254.185C302.117 254.446 299.706 253.326 297.579 251.669C297.527 251.632 297.46 251.714 297.512 251.759C299.438 253.379 302.162 255.118 304.811 254.707C304.811 255.163 304.811 255.618 304.811 256.066C304.811 256.342 304.811 256.618 304.804 256.902C302.699 256.82 300.699 256.574 298.751 255.663C298.699 255.641 298.661 255.723 298.714 255.745C300.602 256.738 302.677 257.208 304.796 257.32C304.781 258.179 304.759 259.06 304.744 259.955C304.199 259.851 303.669 259.724 303.094 259.694C302.042 259.649 301.259 259.186 300.281 258.895C300.191 258.865 300.132 259 300.221 259.03C301.087 259.328 301.774 259.821 302.699 259.926C303.386 260 304.057 260.157 304.736 260.269C304.684 263.83 304.789 267.57 306.027 270.66C306.304 271.347 307.542 271.235 307.535 270.429C307.513 267.965 306.856 265.502 306.527 263.061V263.076Z" fill="#727ABA"/>
<path d="M318.633 266.017L318.289 272.392L317.745 282.328L316.857 298.639H294.773L293.885 282.328L293.34 272.392L292.997 266.017H318.633Z" fill="#95A8B5"/>
<path d="M318.289 272.392L318.214 273.676L318.147 274.997L317.744 282.328H293.885L293.482 274.997L293.414 273.676L293.34 272.392H318.289Z" fill="#A5B8C6"/>
<path d="M318.214 273.676L318.147 274.997H293.481L293.414 273.676H318.214Z" fill="#95A8B5"/>
<path d="M103.069 279.051C102.293 280.723 104.957 284.209 111.681 283.828C110.845 282.358 109.995 280.365 109.375 278.648C107.86 278.147 106.159 277.453 106.159 277.453C106.159 277.453 104.106 276.595 103.069 279.051Z" fill="#D66053"/>
<path d="M143.856 285.209C143.512 280.364 141.512 269.032 135.639 265.181C128.37 261.351 124.638 264.061 123.131 263.516C121.638 262.971 107.533 253.976 101.674 257.111C103.182 258.029 104.54 259.029 104.577 259.186C104.07 259.32 99.9726 256.626 98.8009 256.357C97.4426 256.043 96.2933 256.193 95.7784 256.603C95.6142 256.738 95.5097 256.932 95.5022 257.141C95.4276 260.388 98.7263 260.731 98.6815 264.232C98.4725 263.404 98.1218 262.754 97.7113 262.202C96.3306 266.285 97.0396 271.093 98.2412 272.183C100.047 273.818 100.331 275.46 101.114 275.975C101.898 276.49 108.055 275.564 108.451 275.206C108.652 275.325 111.943 282.328 112.809 284.843C113.1 284.186 113.294 283.701 113.346 283.477C113.63 282.26 112.085 274.594 112.63 272.616C112.921 274.654 114.369 282.455 114.085 283.671C113.906 284.448 111.906 288.598 110.122 291.569C109.19 293.339 108.339 294.749 107.943 294.921C106.854 295.384 105.189 294.764 104.615 296.078C104.04 297.392 104.279 298.721 106.1 299.042C107.928 299.363 110.436 299.355 111.294 299.019C111.421 298.967 111.66 298.773 111.966 298.475C113.421 296.571 116.757 292.503 117.981 291.286C118.018 290.539 118.138 289.748 118.399 288.979C118.869 287.598 119.966 286.56 121.13 285.829C121.257 285.53 121.332 285.284 121.377 285.135C121.735 284.067 120.832 276.266 121.377 275.982C122.019 276.43 122.295 284.074 121.936 285.142C121.914 285.209 121.869 285.314 121.817 285.433C123.347 284.627 124.787 284.328 124.825 284.44C124.825 284.784 120.033 286.374 119.086 289.21C118.138 292.047 118.862 295.018 118.63 295.242C118.63 295.242 118.16 295.511 117.891 295.951C117.66 296.332 116.906 298.019 119.921 298.28C122.937 298.549 135.019 299.303 136.325 298.616C137.639 297.93 137.87 298.542 139.781 297.31C141.684 296.078 144.184 290.061 143.841 285.217L143.856 285.209Z" fill="#D66053"/>
<path d="M139.817 293.264C139.817 292.674 140.25 292.181 140.84 292.107C143.683 291.763 152.258 289.905 152.602 283.851C153.035 276.177 150.87 271.623 146.751 269.6C142.877 267.696 143.594 267.121 144.586 266.756C144.892 266.644 146.534 266.853 146.534 266.853C148.848 267.427 151.206 269.025 153.176 272.519C154.773 275.348 156.281 281.835 154.766 286.172C153.378 290.136 150.505 292.383 144.945 293.898C143.631 294.257 141.728 294.473 140.907 294.414C140.295 294.369 139.817 293.869 139.817 293.249V293.264Z" fill="#D66053"/>
<path d="M153.469 156.555C153.469 156.555 162.375 158.69 162.768 160.221C163.162 161.753 161.882 164.071 162.116 164.163C162.348 164.254 163.622 165.569 162.832 165.542C162.042 165.515 152.844 163.025 151.958 161.96C151.071 160.894 152.84 156.4 153.469 156.556L153.469 156.555Z" fill="#53AEA3"/>
<path d="M155.375 158.422C155.327 158.408 155.278 158.433 155.264 158.481L154.788 160.05L153.346 159.589C153.524 159.06 153.721 158.483 153.88 158.025C153.897 157.979 153.867 157.934 153.825 157.913C153.779 157.896 153.728 157.921 153.713 157.967C152.647 161.04 152.682 161.068 152.746 161.12C152.753 161.126 152.761 161.129 152.77 161.132C152.805 161.145 152.846 161.136 152.871 161.104C152.886 161.083 152.893 161.06 152.888 161.037C152.902 160.936 153.076 160.399 153.29 159.756L154.738 160.218L154.348 161.502C154.335 161.548 154.359 161.594 154.402 161.61C154.402 161.61 154.406 161.611 154.407 161.612C154.455 161.626 154.504 161.601 154.517 161.553L155.434 158.532C155.448 158.485 155.423 158.434 155.375 158.422Z" fill="#241726"/>
<path d="M157.817 159.189L155.971 158.668C155.923 158.654 155.875 158.681 155.861 158.729C155.849 158.773 155.873 158.819 155.917 158.835C155.918 158.836 155.922 158.837 155.923 158.838L156.817 159.09L155.827 162.11C155.81 162.155 155.836 162.204 155.88 162.22L155.884 162.221C155.931 162.237 155.98 162.212 155.995 162.165L156.986 159.137L157.768 159.358C157.816 159.372 157.864 159.345 157.877 159.297C157.89 159.252 157.863 159.202 157.816 159.188L157.817 159.189Z" fill="#241726"/>
<path d="M159.76 159.987C159.713 159.983 159.576 159.968 158.809 160.911C158.706 160.508 158.469 159.586 158.398 159.45C158.382 159.418 158.338 159.394 158.301 159.397C158.228 159.404 158.121 159.415 157.318 162.366C157.305 162.413 157.335 162.46 157.381 162.473C157.427 162.487 157.477 162.458 157.488 162.412C157.731 161.523 158.123 160.15 158.297 159.693C158.394 160.01 158.569 160.68 158.679 161.123C158.688 161.157 158.713 161.181 158.746 161.187C158.78 161.194 158.814 161.182 158.835 161.156C159.133 160.783 159.493 160.373 159.671 160.218C159.585 160.662 159.115 162.163 158.802 163.115C158.786 163.159 158.811 163.208 158.856 163.224L158.859 163.226C158.906 163.243 158.955 163.216 158.971 163.169C159.613 161.211 159.908 160.158 159.847 160.042C159.83 160.007 159.798 159.986 159.76 159.983L159.76 159.987Z" fill="#241726"/>
<path d="M161.574 163.715C161.042 163.588 160.201 163.381 160.003 163.325C160.051 163.002 160.456 161.338 160.718 160.293C160.73 160.247 160.702 160.199 160.654 160.187C160.607 160.176 160.559 160.204 160.547 160.251C159.762 163.382 159.799 163.409 159.861 163.454C159.866 163.456 159.87 163.461 159.893 163.47C159.975 163.5 160.278 163.587 161.533 163.887C161.58 163.898 161.628 163.869 161.64 163.821C161.652 163.775 161.622 163.727 161.574 163.715Z" fill="#241726"/>
<path d="M148.068 174.618C148.068 174.618 157.421 178.777 157.315 180.365C157.208 181.955 155.232 184.958 154.729 184.825C154.226 184.692 150.581 183.367 150.581 183.367C150.581 183.367 149.64 184.697 149.388 184.265C149.095 183.763 148.837 182.543 148.837 182.543C148.837 182.543 144.247 180.323 144.177 179.278C144.108 178.233 146.433 173.39 148.068 174.618Z" fill="#3979B1"/>
<path d="M146.694 176.156C146.669 176.148 146.642 176.159 146.63 176.183L146.013 177.439C146.013 177.439 146.012 177.44 146.012 177.442L145.551 178.382C145.54 178.403 145.546 178.427 145.561 178.442C145.565 178.446 145.569 178.45 145.576 178.452C145.602 178.465 145.634 178.454 145.647 178.428L146.09 177.527C146.182 177.553 146.408 177.611 146.648 177.633C147.189 177.682 147.363 177.501 147.414 177.341C147.686 176.485 146.705 176.159 146.696 176.156L146.694 176.156ZM146.135 177.431L146.704 176.272C146.881 176.34 147.523 176.642 147.311 177.309C147.201 177.654 146.474 177.527 146.135 177.431Z" fill="#FBFEFF"/>
<path d="M147.976 178.192C148.066 178.156 148.316 178.007 149.068 177.415C149.091 177.397 149.095 177.364 149.078 177.341C149.06 177.319 149.026 177.315 149.004 177.333C148.576 177.669 148.095 178.023 147.962 178.087C147.927 177.944 147.911 177.339 147.917 176.788C147.918 176.758 147.895 176.735 147.865 176.735C147.836 176.735 147.812 176.759 147.811 176.788C147.801 177.762 147.839 178.058 147.878 178.152L147.306 179.584C147.298 179.604 147.304 179.627 147.318 179.641C147.323 179.646 147.329 179.651 147.335 179.653C147.362 179.664 147.394 179.651 147.405 179.624L147.976 178.192Z" fill="#FBFEFF"/>
<path d="M150.044 178.1L150.666 178.41C150.692 178.423 150.724 178.413 150.737 178.386C150.75 178.36 150.739 178.329 150.713 178.315L149.371 177.647C149.344 177.634 149.313 177.644 149.3 177.67C149.289 177.691 149.294 177.716 149.309 177.731C149.313 177.735 149.317 177.739 149.323 177.741L149.948 178.052L148.816 180.378C148.806 180.398 148.811 180.423 148.826 180.438C148.83 180.442 148.834 180.446 148.841 180.448C148.867 180.461 148.899 180.45 148.912 180.423L150.042 178.098L150.044 178.1Z" fill="#FBFEFF"/>
<path d="M152.172 178.848C152.183 178.821 152.17 178.79 152.143 178.779C152.116 178.768 152.085 178.781 152.073 178.809L151.479 180.256L150.563 179.758L151.144 178.416C151.157 178.39 151.143 178.358 151.117 178.347C151.09 178.335 151.058 178.349 151.047 178.375L149.927 180.96C149.918 180.981 149.923 181.004 149.937 181.018C149.942 181.023 149.947 181.027 149.954 181.03C149.981 181.042 150.013 181.028 150.023 181.001L150.52 179.856L151.439 180.354L150.969 181.499C150.961 181.519 150.966 181.541 150.981 181.555C150.986 181.561 150.991 181.565 150.998 181.568C151.025 181.578 151.056 181.566 151.068 181.538L152.172 178.848Z" fill="#FBFEFF"/>
<path d="M153.906 180.222C153.896 179.888 153.766 179.629 153.541 179.491C153.084 179.212 152.371 179.54 151.951 180.223C151.749 180.55 151.644 180.909 151.654 181.236C151.661 181.499 151.744 181.717 151.889 181.864C151.927 181.904 151.97 181.938 152.018 181.967C152.243 182.104 152.534 182.101 152.836 181.959C153.132 181.819 153.406 181.563 153.607 181.235C153.808 180.908 153.914 180.549 153.904 180.222L153.906 180.222ZM152.793 181.863C152.524 181.991 152.268 181.995 152.074 181.877C151.881 181.76 151.769 181.531 151.76 181.233C151.752 180.928 151.851 180.589 152.041 180.279C152.431 179.646 153.078 179.334 153.485 179.583C153.526 179.607 153.561 179.636 153.594 179.669C153.72 179.798 153.792 179.99 153.8 180.227C153.809 180.532 153.709 180.871 153.519 181.182C153.329 181.491 153.071 181.734 152.793 181.865L152.793 181.863Z" fill="#FBFEFF"/>
<path d="M155.842 180.562C155.852 180.535 155.838 180.505 155.811 180.494C155.783 180.484 155.753 180.499 155.742 180.526C155.442 181.348 155.003 182.532 154.843 182.921C154.818 182.702 154.785 182.267 154.755 181.871C154.657 180.59 154.613 180.122 154.552 180.053C154.537 180.035 154.514 180.028 154.491 180.032C154.329 180.059 153.687 181.599 153.32 182.514C153.311 182.534 153.317 182.557 153.331 182.571C153.336 182.576 153.342 182.581 153.349 182.583C153.376 182.594 153.407 182.58 153.418 182.553C153.834 181.52 154.324 180.392 154.485 180.169C154.536 180.393 154.6 181.243 154.648 181.881C154.743 183.115 154.75 183.118 154.802 183.137C154.821 183.144 154.845 183.138 154.86 183.124C154.925 183.06 155.567 181.313 155.841 180.564L155.842 180.562Z" fill="#FBFEFF"/>
<path d="M152.197 177.239C152.186 177.228 152.183 177.211 152.189 177.195C152.199 177.176 152.222 177.166 152.242 177.176C152.333 177.217 154.472 178.19 155.008 178.611C155.025 178.625 155.027 178.649 155.014 178.666C155.001 178.684 154.976 178.686 154.959 178.673C154.431 178.258 152.231 177.257 152.21 177.248C152.205 177.246 152.202 177.242 152.199 177.239L152.197 177.239Z" fill="#FBFEFF"/>
<path d="M155.381 178.98C155.37 178.969 155.367 178.95 155.374 178.935C155.384 178.915 155.408 178.907 155.428 178.917C155.448 178.927 155.921 179.158 156.13 179.457C156.142 179.474 156.138 179.499 156.12 179.512C156.103 179.525 156.077 179.52 156.065 179.503C155.868 179.22 155.398 178.991 155.393 178.988C155.39 178.986 155.386 178.983 155.382 178.98L155.381 178.98Z" fill="#FBFEFF"/>
<path d="M169.183 172.649C169.183 172.649 161.48 169.693 160.223 170.32C158.967 170.947 159.218 174.11 158.653 174.202C158.087 174.293 157.022 173.99 157.149 174.562C157.277 175.134 167.268 178.595 168.458 178.113C169.648 177.63 170.623 173.159 169.184 172.65L169.183 172.649Z" fill="#D9607D"/>
<path d="M162.178 172.061L161.217 171.77C161.187 171.761 161.158 171.775 161.15 171.803C161.142 171.83 161.159 171.86 161.189 171.868L162.099 172.143C162.017 172.485 161.488 174.579 160.874 174.844C160.795 174.878 160.72 174.876 160.646 174.842C159.882 174.477 160.202 173.252 160.205 173.24C160.212 173.213 160.193 173.184 160.165 173.176C160.135 173.167 160.106 173.183 160.099 173.211C160.084 173.264 159.755 174.53 160.601 174.934C160.614 174.939 160.627 174.945 160.639 174.95C160.732 174.983 160.827 174.979 160.923 174.938C161.634 174.633 162.193 172.226 162.217 172.124C162.223 172.098 162.205 172.069 162.179 172.062L162.178 172.061Z" fill="#FBFEFF"/>
<path d="M163.443 172.516C163.43 172.504 163.408 172.497 163.392 172.499C163.297 172.509 162.738 173.408 161.733 175.171C161.719 175.195 161.729 175.227 161.755 175.241C161.781 175.255 161.815 175.247 161.828 175.223C162.019 174.888 162.253 174.484 162.483 174.093L163.549 174.495C163.591 175.033 163.633 175.599 163.666 176.077C163.668 176.098 163.683 176.117 163.703 176.124C163.709 176.126 163.717 176.128 163.724 176.127C163.754 176.126 163.777 176.103 163.774 176.075C163.613 173.77 163.501 172.572 163.441 172.516L163.443 172.516ZM162.536 174.004C162.897 173.391 163.24 172.83 163.375 172.651C163.413 172.886 163.476 173.592 163.54 174.383L162.536 174.004Z" fill="#FBFEFF"/>
<path d="M166.472 173.405C166.443 173.394 166.412 173.406 166.401 173.431C165.919 174.637 165.339 175.951 165.178 176.098C165.056 175.922 164.873 174.554 164.76 173.285C164.757 173.257 164.731 173.234 164.701 173.235C164.671 173.236 164.649 173.26 164.651 173.289C164.708 173.938 164.914 176.066 165.133 176.197C165.139 176.2 165.144 176.203 165.15 176.205C165.169 176.212 165.189 176.211 165.207 176.205C165.429 176.121 166.255 174.092 166.504 173.472C166.513 173.445 166.5 173.415 166.472 173.404L166.472 173.405Z" fill="#FBFEFF"/>
<path d="M167.997 177.078L168.107 177.082C168.107 177.082 168.079 174.246 168.077 174.031C168.077 173.997 168.055 173.977 168.034 173.97C167.986 173.953 167.875 173.916 165.805 176.571C165.788 176.593 165.794 176.626 165.818 176.643C165.823 176.646 165.828 176.649 165.832 176.65C165.853 176.658 165.879 176.652 165.893 176.635C166.165 176.286 166.502 175.86 166.827 175.456L167.986 175.856C167.992 176.505 167.998 177.077 167.998 177.077L167.997 177.078ZM166.895 175.372C167.364 174.791 167.801 174.27 167.968 174.114C167.97 174.37 167.977 175.084 167.984 175.748L166.895 175.372Z" fill="#FBFEFF"/>
<path d="M163.732 171.371C163.717 171.362 163.709 171.346 163.712 171.33C163.715 171.31 163.736 171.295 163.759 171.3C163.86 171.32 166.251 171.788 166.898 172.073C166.919 172.083 166.929 172.106 166.921 172.124C166.911 172.144 166.889 172.152 166.867 172.143C166.228 171.862 163.77 171.381 163.745 171.376C163.74 171.374 163.736 171.372 163.731 171.371L163.732 171.371Z" fill="#FBFEFF"/>
<path d="M167.372 172.344C167.358 172.335 167.35 172.319 167.352 172.303C167.356 172.282 167.377 172.27 167.4 172.274C167.422 172.279 167.955 172.398 168.246 172.637C168.263 172.651 168.266 172.676 168.252 172.691C168.238 172.707 168.212 172.708 168.195 172.695C167.921 172.469 167.392 172.351 167.386 172.35C167.382 172.348 167.377 172.347 167.373 172.345L167.372 172.344Z" fill="#FBFEFF"/>
<path d="M143.91 162.322C143.91 162.322 137.141 165.964 136.973 167.488C136.806 169.012 138.907 171.697 139.38 171.99C139.958 172.35 140.402 172.824 141.082 172.593C141.809 172.346 147.117 167.724 148.196 168.527C152.151 171.469 147.531 160.234 143.91 162.323L143.91 162.322Z" fill="#E7C01F"/>
<path d="M141.394 166.278L140.35 166.949C140.318 166.97 140.307 167.009 140.327 167.038C140.347 167.067 140.387 167.075 140.418 167.053L141.408 166.416C141.661 166.763 143.192 168.907 142.946 169.689C142.915 169.79 142.853 169.859 142.761 169.901C141.806 170.331 140.919 169.067 140.91 169.055C140.89 169.026 140.849 169.021 140.818 169.042C140.786 169.063 140.778 169.102 140.797 169.131C140.835 169.187 141.753 170.492 142.81 170.016C142.826 170.009 142.842 170.001 142.856 169.993C142.962 169.932 143.035 169.841 143.074 169.718C143.36 168.812 141.56 166.393 141.484 166.291C141.465 166.265 141.424 166.258 141.396 166.278L141.394 166.278Z" fill="white"/>
<path d="M137.425 167.83C137.407 167.839 137.384 167.837 137.37 167.824C137.35 167.806 137.35 167.776 137.37 167.756C137.459 167.665 139.563 165.53 140.299 165.056C140.323 165.042 140.353 165.047 140.367 165.067C140.382 165.089 140.373 165.118 140.351 165.134C139.626 165.602 137.463 167.798 137.441 167.819C137.435 167.824 137.431 167.827 137.425 167.831L137.425 167.83Z" fill="#FBFEFF"/>
<path d="M140.589 164.967C140.569 164.973 140.547 164.968 140.535 164.952C140.519 164.931 140.526 164.901 140.548 164.886C140.572 164.87 141.122 164.479 141.58 164.408C141.608 164.404 141.632 164.421 141.634 164.447C141.636 164.473 141.616 164.498 141.589 164.502C141.156 164.568 140.609 164.957 140.603 164.96C140.599 164.963 140.593 164.966 140.588 164.969L140.589 164.967Z" fill="#FBFEFF"/>
<path d="M143.327 168.284C143.294 168.235 143.472 168.298 143.489 168.305C143.629 168.377 143.759 168.462 143.842 168.47C144.144 168.501 144.352 168.437 144.745 168.295C145.249 168.114 146.251 167.418 145.839 166.693C145.602 166.272 143.634 167.516 143.059 166.761C142.132 165.541 144.722 164.074 145.278 164.645C145.361 164.729 144.82 164.624 144.554 164.697C144.133 164.814 143.941 164.956 143.687 165.129C143.287 165.401 142.888 165.998 143.085 166.5C143.453 167.441 145.832 165.684 146.122 166.799C146.435 168.006 144.001 169.308 143.327 168.284Z" fill="white"/>
<defs>
<filter id="filter0_d_260_587" x="0.446289" y="0.283447" width="425.649" height="407.146" filterUnits="userSpaceOnUse" color-interpolation-filters="sRGB">
<feFlood flood-opacity="0" result="BackgroundImageFix"/>
<feColorMatrix in="SourceAlpha" type="matrix" values="0 0 0 0 0 0 0 0 0 0 0 0 0 0 0 0 0 0 127 0" result="hardAlpha"/>
<feOffset dy="4"/>
<feGaussianBlur stdDeviation="2"/>
<feComposite in2="hardAlpha" operator="out"/>
<feColorMatrix type="matrix" values="0 0 0 0 0 0 0 0 0 0 0 0 0 0 0 0 0 0 0.25 0"/>
<feBlend mode="normal" in2="BackgroundImageFix" result="effect1_dropShadow_260_587"/>
<feBlend mode="normal" in="SourceGraphic" in2="effect1_dropShadow_260_587" result="shape"/>
</filter>
<radialGradient id="paint0_radial_260_587" cx="0" cy="0" r="1" gradientUnits="userSpaceOnUse" gradientTransform="translate(238.92 135.916) scale(9.64976 9.65227)">
<stop stop-color="#FBC7B0"/>
<stop offset="1" stop-color="#FABA9C"/>
</radialGradient>
<radialGradient id="paint1_radial_260_587" cx="0" cy="0" r="1" gradientUnits="userSpaceOnUse" gradientTransform="translate(233.34 118.459) rotate(-12.1531) scale(15.2099 15.2135)">
<stop stop-color="#FBC7B0"/>
<stop offset="1" stop-color="#FABA9C"/>
</radialGradient>
<radialGradient id="paint2_radial_260_587" cx="0" cy="0" r="1" gradientUnits="userSpaceOnUse" gradientTransform="translate(218.353 281.611) scale(6.06749 6.06907)">
<stop stop-color="#FBC7B0"/>
<stop offset="1" stop-color="#FABA9C"/>
</radialGradient>
<radialGradient id="paint3_radial_260_587" cx="0" cy="0" r="1" gradientUnits="userSpaceOnUse" gradientTransform="translate(179.939 283.134) scale(5.52268 5.52411)">
<stop stop-color="#FBC7B0"/>
<stop offset="1" stop-color="#FABA9C"/>
</radialGradient>
<radialGradient id="paint4_radial_260_587" cx="0" cy="0" r="1" gradientUnits="userSpaceOnUse" gradientTransform="translate(213.576 179.453) scale(30.927 30.935)">
<stop stop-color="#FBC7B0"/>
<stop offset="1" stop-color="#FABA9C"/>
</radialGradient>
<radialGradient id="paint5_radial_260_587" cx="0" cy="0" r="1" gradientUnits="userSpaceOnUse" gradientTransform="translate(213.576 179.452) scale(30.927 30.935)">
<stop stop-color="#FBC7B0"/>
<stop offset="1" stop-color="#FABA9C"/>
</radialGradient>
<linearGradient id="paint6_linear_260_587" x1="318.265" y1="215.319" x2="318.274" y2="262.578" gradientUnits="userSpaceOnUse">
<stop stop-color="#5F6AB1"/>
<stop offset="1" stop-color="#59499E"/>
</linearGradient>
<linearGradient id="paint7_linear_260_587" x1="280.832" y1="219.181" x2="300.779" y2="262.015" gradientUnits="userSpaceOnUse">
<stop stop-color="#5F6AB1"/>
<stop offset="1" stop-color="#59499E"/>
</linearGradient>
<linearGradient id="paint8_linear_260_587" x1="296.403" y1="205.147" x2="310.739" y2="261.837" gradientUnits="userSpaceOnUse">
<stop stop-color="#5F6AB1"/>
<stop offset="1" stop-color="#59499E"/>
</linearGradient>
</defs>
</svg>
