<svg width="285" height="148" viewBox="0 0 285 148" fill="none" xmlns="http://www.w3.org/2000/svg">
<g filter="url(#filter0_d_375_524)">
<path d="M4 61.1902L38.3234 67.3888L52.8294 61.0079L4.43147 60.8864L4 61.1963L4 61.1902Z" fill="white"/>
<path d="M9.16553 57.4894L60.523 57.617L69.2923 53.758L14.7382 53.4967L9.16553 57.4954V57.4894Z" fill="white"/>
<path d="M145.894 0L145.432 0.0911564L112.731 34.6394L126.502 28.5745L145.894 0Z" fill="white"/>
<path d="M86.1562 34.7791L74.3667 39.8596L74.2451 44.4357L83.9685 47.298L85.7855 46.4958L89.7903 38.2613L86.1623 34.7731L86.1562 34.7791Z" fill="white"/>
<path d="M99.9875 40.2486L104.697 38.1763L139.683 1.20935L133.004 2.50985L99.9814 40.2547L99.9875 40.2486Z" fill="white"/>
<path d="M45.057 68.1425L23.4773 77.6349L17.9653 85.7599L66.2965 76.2918L45.057 68.1425Z" fill="white"/>
<path d="M119.021 35.5935L90.7261 48.0455L113.108 56.4319L119.021 35.5935Z" fill="white"/>
<path d="M71.7171 74.724L81.6714 52.0321L49.4932 66.1978L71.7171 74.724Z" fill="white"/>
<path d="M148.228 22.7405L123.075 33.8129L117.119 54.791L159.264 24.837L148.228 22.7344V22.7405Z" fill="white"/>
<path d="M88.4658 50.8349L99.988 78.1332L104.187 77.8476L101.769 55.8121L88.4658 50.8289V50.8349Z" fill="white"/>
<path d="M79.0403 66.5017L93.2728 82.4419L96.8279 79.4276L85.324 52.1719L79.0342 66.5017H79.0403Z" fill="white"/>
<mask id="mask0_375_524" style="mask-type:luminance" maskUnits="userSpaceOnUse" x="93" y="78" width="36" height="64">
<path d="M103.932 78.8754L93.3569 83.4342L118.326 141.356L128.901 136.797L103.932 78.8754Z" fill="white"/>
</mask>
<g mask="url(#mask0_375_524)">
<path d="M104.862 81.2203L99.5565 81.585L95.2539 85.2373L123.549 139.099L104.862 81.2264V81.2203Z" fill="white"/>
</g>
<path d="M145.323 49.3763C144.423 49.3763 143.652 50.1542 143.652 51.0658V71.8737C143.652 72.7853 144.423 73.5632 145.323 73.5632H170.944V77.0757H157.106L155.648 83.1042H152.22L153.721 77.0757H145.323C142.454 77.0757 140.182 74.7786 140.182 71.8737V51.0658C140.182 48.1609 142.454 45.8638 145.323 45.8638H170.944V49.3763H145.323Z" fill="white"/>
<path d="M203.632 49.3764H178.953V59.6953H198.789V63.2504H178.953V73.5693H203.632V77.0818H175.483V45.8699H203.632V49.3824V49.3764Z" fill="white"/>
<path d="M237.518 45.8638V49.3763H223.851V77.0757H220.381V49.3763H206.671V45.8638H237.518Z" fill="white"/>
<path d="M240.775 45.8638H244.245V77.0757H240.775V45.8638Z" fill="white"/>
<path d="M277.53 45.8638H281V77.0757H276.248L253.629 49.8503V77.0757H250.159V45.8638H254.911L277.53 73.0891V45.8638Z" fill="white"/>
<path d="M169.485 97.8898V101.402H155.818V129.102H152.348V101.402H138.638V97.8898H169.485Z" fill="white"/>
<path d="M200.934 101.402H176.255V111.721H196.091V115.276H176.255V125.595H200.934V129.108H172.785V97.8959H200.934V101.408V101.402Z" fill="white"/>
<path d="M234.948 97.8898L222.052 113.496L234.99 129.102H230.493L219.014 115.27H209.072V129.102H205.559V97.8898H209.072V111.721H219.014C222.739 107.212 226.768 102.399 230.493 97.8898H234.948Z" fill="white"/>
<path d="M239.706 97.8898H243.176V129.102H239.706V97.8898Z" fill="white"/>
<path d="M276.46 97.8898H279.93V129.102H275.178L252.559 101.876V129.102H249.089V97.8898H253.841L276.46 125.115V97.8898Z" fill="white"/>
</g>
<defs>
<filter id="filter0_d_375_524" x="0" y="0" width="285" height="147.099" filterUnits="userSpaceOnUse" color-interpolation-filters="sRGB">
<feFlood flood-opacity="0" result="BackgroundImageFix"/>
<feColorMatrix in="SourceAlpha" type="matrix" values="0 0 0 0 0 0 0 0 0 0 0 0 0 0 0 0 0 0 127 0" result="hardAlpha"/>
<feOffset dy="4"/>
<feGaussianBlur stdDeviation="2"/>
<feComposite in2="hardAlpha" operator="out"/>
<feColorMatrix type="matrix" values="0 0 0 0 0 0 0 0 0 0 0 0 0 0 0 0 0 0 0.25 0"/>
<feBlend mode="normal" in2="BackgroundImageFix" result="effect1_dropShadow_375_524"/>
<feBlend mode="normal" in="SourceGraphic" in2="effect1_dropShadow_375_524" result="shape"/>
</filter>
</defs>
</svg>
